<?xml version="1.0" standalone="no"?>
<!DOCTYPE svg PUBLIC "-//W3C//DTD SVG 20010904//EN"
 "http://www.w3.org/TR/2001/REC-SVG-20010904/DTD/svg10.dtd">
<svg version="1.0" xmlns="http://www.w3.org/2000/svg"
 width="512.000000pt" height="512.000000pt" viewBox="0 0 512.000000 512.000000"
 preserveAspectRatio="xMidYMid meet">

<g transform="translate(0.000000,512.000000) scale(0.100000,-0.100000)"
fill="#000000" stroke="none">
<path d="M2425 4425 c-45 -12 -2182 -912 -2252 -949 -49 -25 -120 -111 -139
-169 -41 -120 -14 -239 75 -327 61 -61 9 -36 669 -315 l182 -77 0 -541 c0
-598 2 -616 62 -730 66 -122 137 -182 346 -286 366 -184 706 -268 1127 -278
311 -7 533 20 816 103 207 60 477 179 614 270 108 71 197 204 224 332 7 35 11
239 11 591 l0 538 147 63 c81 34 153 65 160 67 10 4 13 -48 13 -248 l0 -254
-40 -23 c-132 -75 -158 -268 -54 -391 l36 -41 -36 -41 c-56 -66 -66 -110 -66
-296 0 -250 4 -253 265 -253 265 0 265 0 265 255 0 200 -9 237 -73 303 l-31
32 31 33 c117 120 90 319 -55 409 l-32 20 2 295 3 295 135 59 c118 51 141 65
186 113 117 124 118 304 3 430 -40 43 -67 62 -142 94 -391 171 -2143 906
-2187 918 -67 17 -199 17 -265 -1z m1320 -668 c814 -345 1106 -473 1123 -492
15 -17 22 -39 22 -65 0 -26 -7 -48 -22 -65 -17 -19 -309 -147 -1123 -492
l-1100 -467 -85 0 -85 1 -1100 466 c-810 343 -1106 473 -1123 492 -30 35 -30
95 1 130 16 19 306 146 1097 481 591 250 1093 461 1115 469 26 10 64 14 110
11 66 -3 127 -27 1170 -469z m-1952 -1521 c331 -140 622 -260 647 -265 65 -15
187 -13 250 3 30 8 322 127 647 265 326 138 598 251 603 251 8 0 10 -152 8
-498 l-3 -497 -33 -67 c-39 -79 -80 -116 -202 -181 -234 -126 -517 -218 -810
-264 -161 -24 -519 -24 -680 0 -292 46 -577 138 -810 264 -122 65 -163 102
-202 181 l-33 67 -3 497 c-2 364 0 498 8 498 6 0 282 -115 613 -254z m2825
-222 c26 -18 28 -50 5 -76 -38 -43 -105 0 -84 55 8 22 18 29 51 36 3 0 16 -6
28 -15z m4 -431 c15 -13 18 -32 18 -105 l0 -88 -55 0 -55 0 0 83 c0 59 5 89
16 105 18 26 50 28 76 5z"/>
</g>
</svg>
